<?xml version="1.0" standalone="no"?><!DOCTYPE svg PUBLIC "-//W3C//DTD SVG 1.1//EN" "http://www.w3.org/Graphics/SVG/1.1/DTD/svg11.dtd"><svg t="1590114527061" class="icon" viewBox="0 0 1024 1024" version="1.1" xmlns="http://www.w3.org/2000/svg" p-id="8928" xmlns:xlink="http://www.w3.org/1999/xlink" width="200" height="200"><defs><style type="text/css"></style></defs><path d="M292.306 214.793c40.673-59.469 98.47-89.114 123.74-99.877-50.841 19.771-94.015 54.996-123.74 99.877zM317.249 549.7l-0.009-0.017a0.095 0.095 0 0 1 0.009 0.017zM330.252 573.425l-0.889-1.589 0.889 1.589zM314.714 544.938zM312.366 540.488c-16.983-32.365-32.057-64.58-43.611-95.073 10.481 27.982 25.067 59.78 43.611 95.073z" fill="#d81e06" p-id="8929"></path><path d="M276.744 382.688C295.187 506.384 510.593 843.49 510.593 843.49S409.26 713.734 331.798 576.177c15.768 28.036 33.713 57.96 53.791 89.654 50.524 79.755 101.501 149.919 125.003 181.547a2836.34 2836.34 0 0 0 13.718-18.628c41.494-66.235 208.413-337.835 224.549-446.063 27.402-152.126-70.696-229.04-122.257-258.284-34.982-17.378-74.37-27.171-116.009-27.171-30.64 0-60.058 5.311-87.405 15.032-30.816 13.288-179.4 87.46-146.444 270.424z m233.849-157.864c78.389 0 142.163 63.774 142.163 142.163S588.982 509.15 510.593 509.15 368.43 445.376 368.43 366.987s63.773-142.163 142.163-142.163z" fill="#d81e06" p-id="8930"></path><path d="M497.201 885.762l13.392 17.442 13.392-17.442c0.701-0.913 70.898-92.56 140.138-201.86C758.272 535.28 806.01 425.928 806.01 358.882c0-39.874-7.813-78.564-23.222-114.995-14.88-35.18-36.178-66.772-63.303-93.897s-58.716-48.423-93.896-63.303c-36.432-15.409-75.121-23.222-114.995-23.222s-78.563 7.813-114.995 23.222c-35.18 14.88-66.772 36.178-93.897 63.303s-48.423 58.717-63.303 93.897c-15.409 36.431-23.222 75.121-23.222 114.995 0 67.046 47.738 176.399 141.888 325.02 69.238 109.3 139.435 200.947 140.136 201.86z m-68.507-775.74s-1.986 0.725-5.507 2.243c27.347-9.721 56.765-15.032 87.405-15.032 41.638 0 81.026 9.793 116.009 27.171-17.536-9.946-29.693-14.382-29.693-14.382s187.827 60.358 180.229 265.49C746.326 547.301 515.01 843.49 515.01 843.49s3.369-5.272 9.299-14.739a2790.949 2790.949 0 0 1-13.718 18.628c-23.502-31.628-74.479-101.792-125.003-181.547-20.078-31.694-38.022-61.618-53.791-89.654a1069.523 1069.523 0 0 1-2.435-4.341 1399.816 1399.816 0 0 1-12.114-22.136l-0.009-0.017c-0.847-1.582-1.689-3.164-2.527-4.745-0.685-1.291-1.36-2.574-2.035-3.855l-0.313-0.595c-18.543-35.293-33.13-67.091-43.611-95.073-9.363-24.711-16.414-48.291-20.29-69.902-2.548-68.796 16.885-121.307 43.842-160.72 29.725-44.881 72.899-80.106 123.74-99.877 7.92-3.374 12.649-4.895 12.649-4.895z" fill="#d81e06" p-id="8931"></path><path d="M510.593 509.151c78.389 0 142.163-63.774 142.163-142.163s-63.774-142.163-142.163-142.163S368.43 288.599 368.43 366.988s63.773 142.163 142.163 142.163z m108.395-142.164c0 59.769-48.626 108.395-108.395 108.395s-108.395-48.626-108.395-108.395 48.626-108.395 108.395-108.395 108.395 48.627 108.395 108.395zM736.383 836.927c-20.041-9.489-47.483-17.342-81.565-23.342l-0.655 3.723a12.318 12.318 0 0 0-1.116-0.194c-6.864-0.816-13.127 4.408-13.99 11.668-0.849 7.137 3.843 13.572 10.522 14.564l-0.615 3.496c29.133 5.128 53.509 11.86 70.496 19.466 18.638 8.346 21.571 14.609 21.86 15.365-0.868 3.232-13.707 16.8-63.714 28.875-45.006 10.868-104.318 16.853-167.012 16.853s-122.007-5.985-167.013-16.853c-50.105-12.099-62.896-25.697-63.719-28.894 1.082-4.274 21.574-23.326 99.529-36.026l-0.62-3.806c6.158-1.477 10.323-7.675 9.466-14.463-0.899-7.125-6.996-12.235-13.711-11.594l-0.565-3.466c-35.641 5.806-65.645 13.94-86.77 23.521-27.28 12.374-41.112 27.795-41.112 45.835 0 14.81 9.313 27.887 27.679 38.869 13.882 8.302 33.26 15.631 57.594 21.786 48.085 12.162 111.741 18.86 179.241 18.86s131.155-6.698 179.241-18.86c24.334-6.155 43.712-13.484 57.594-21.786 18.366-10.982 27.679-24.06 27.679-38.869 0-17.513-13.029-32.562-38.724-44.728z" fill="#d81e06" p-id="8932"></path><path d="M292.306 214.793c-26.956 39.413-46.389 91.924-43.842 160.72 3.876 21.611 10.928 45.191 20.29 69.902 11.553 30.493 26.628 62.708 43.611 95.073l0.313 0.595a1193.743 1193.743 0 0 0 4.562 8.6l0.009 0.017a1395.399 1395.399 0 0 0 14.549 26.477C409.26 713.734 510.593 843.49 510.593 843.49S295.187 506.384 276.744 382.688c-32.956-182.964 115.628-257.137 146.443-270.423 3.52-1.518 5.507-2.243 5.507-2.243s-4.729 1.521-12.649 4.894c-25.269 10.762-83.066 40.407-123.739 99.877z" fill="#d81e06" p-id="8933"></path><path d="M748.858 382.688c-16.136 108.228-183.054 379.827-224.549 446.063-5.93 9.467-9.299 14.739-9.299 14.739s231.316-296.189 262.128-467.977c7.597-205.132-180.229-265.49-180.229-265.49s12.156 4.435 29.693 14.382c51.56 29.243 149.658 106.157 122.256 258.283z" fill="#d81e06" p-id="8934"></path></svg>