<?xml version="1.0" standalone="no"?><!DOCTYPE svg PUBLIC "-//W3C//DTD SVG 1.1//EN" "http://www.w3.org/Graphics/SVG/1.1/DTD/svg11.dtd"><svg t="1590029252296" class="icon" viewBox="0 0 1024 1024" version="1.1" xmlns="http://www.w3.org/2000/svg" p-id="3760" xmlns:xlink="http://www.w3.org/1999/xlink" width="200" height="200"><defs><style type="text/css"></style></defs><path d="M722.432 193.536C574.976 46.08 335.872 44.544 190.464 190.464 44.544 336.384 46.08 574.976 193.536 722.432c140.8 140.8 365.056 148.48 512 22.016l189.44 189.44c10.752 10.752 28.672 11.264 39.424 0 10.752-10.752 10.752-28.672 0-39.424l-189.44-189.44c125.952-146.432 118.272-370.688-22.528-511.488zM686.08 686.08c-124.416 124.416-327.68 122.88-453.12-2.56C107.008 557.568 105.984 354.304 230.4 230.4s327.68-122.88 453.12 2.56 126.976 329.216 2.56 453.12z" p-id="3761" fill="#515151"></path></svg>